<mxfile host="app.diagrams.net" modified="2024-03-06T16:08:42.373Z" agent="Mozilla/5.0 (Windows NT 10.0; Win64; x64) AppleWebKit/537.36 (KHTML, like Gecko) Chrome/122.0.0.0 Safari/537.36" etag="Q3ZDXIMFPnz3G8kfKi7V" version="24.0.0" type="device">
  <diagram id="R2lEEEUBdFMjLlhIrx00" name="Page-1">
    <mxGraphModel dx="1912" dy="578" grid="1" gridSize="10" guides="1" tooltips="1" connect="1" arrows="1" fold="1" page="1" pageScale="1" pageWidth="850" pageHeight="1100" math="0" shadow="0" extFonts="Permanent Marker^https://fonts.googleapis.com/css?family=Permanent+Marker">
      <root>
        <mxCell id="0" />
        <mxCell id="1" parent="0" />
        <mxCell id="v-Di3Hc3oVgs2gPmcvR6-1" value="Equipo" style="whiteSpace=wrap;html=1;align=center;fillColor=#d5e8d4;strokeColor=#82b366;" vertex="1" parent="1">
          <mxGeometry x="180" y="480" width="100" height="40" as="geometry" />
        </mxCell>
        <mxCell id="v-Di3Hc3oVgs2gPmcvR6-2" value="Estadística de Partido" style="whiteSpace=wrap;html=1;align=center;fillColor=#d5e8d4;strokeColor=#82b366;" vertex="1" parent="1">
          <mxGeometry x="690" y="840" width="100" height="40" as="geometry" />
        </mxCell>
        <mxCell id="v-Di3Hc3oVgs2gPmcvR6-3" value="Jugador" style="whiteSpace=wrap;html=1;align=center;fillColor=#d5e8d4;strokeColor=#82b366;" vertex="1" parent="1">
          <mxGeometry x="-330" y="480" width="100" height="40" as="geometry" />
        </mxCell>
        <mxCell id="v-Di3Hc3oVgs2gPmcvR6-4" value="Partido" style="whiteSpace=wrap;html=1;align=center;fillColor=#d5e8d4;strokeColor=#82b366;" vertex="1" parent="1">
          <mxGeometry x="690" y="480" width="100" height="40" as="geometry" />
        </mxCell>
        <mxCell id="v-Di3Hc3oVgs2gPmcvR6-5" value="Grupo" style="whiteSpace=wrap;html=1;align=center;fillColor=#d5e8d4;strokeColor=#82b366;" vertex="1" parent="1">
          <mxGeometry x="180" y="120" width="100" height="40" as="geometry" />
        </mxCell>
        <mxCell id="v-Di3Hc3oVgs2gPmcvR6-6" value="Árbitro" style="whiteSpace=wrap;html=1;align=center;fillColor=#d5e8d4;strokeColor=#82b366;" vertex="1" parent="1">
          <mxGeometry x="690" y="120" width="100" height="40" as="geometry" />
        </mxCell>
        <mxCell id="v-Di3Hc3oVgs2gPmcvR6-8" value="Compone" style="shape=rhombus;perimeter=rhombusPerimeter;whiteSpace=wrap;html=1;align=center;fillColor=#f8cecc;strokeColor=#b85450;" vertex="1" parent="1">
          <mxGeometry x="-85" y="470" width="120" height="60" as="geometry" />
        </mxCell>
        <mxCell id="v-Di3Hc3oVgs2gPmcvR6-10" value="Tiene" style="shape=rhombus;perimeter=rhombusPerimeter;whiteSpace=wrap;html=1;align=center;fillColor=#f8cecc;strokeColor=#b85450;" vertex="1" parent="1">
          <mxGeometry x="680" y="650" width="120" height="60" as="geometry" />
        </mxCell>
        <mxCell id="v-Di3Hc3oVgs2gPmcvR6-11" value="Arbitra" style="shape=rhombus;perimeter=rhombusPerimeter;whiteSpace=wrap;html=1;align=center;fillColor=#f8cecc;strokeColor=#b85450;" vertex="1" parent="1">
          <mxGeometry x="680" y="290" width="120" height="60" as="geometry" />
        </mxCell>
        <mxCell id="v-Di3Hc3oVgs2gPmcvR6-12" value="Pertenece" style="shape=rhombus;perimeter=rhombusPerimeter;whiteSpace=wrap;html=1;align=center;fillColor=#f8cecc;strokeColor=#b85450;" vertex="1" parent="1">
          <mxGeometry x="170" y="290" width="120" height="60" as="geometry" />
        </mxCell>
        <mxCell id="v-Di3Hc3oVgs2gPmcvR6-13" value="" style="endArrow=none;html=1;rounded=0;exitX=1;exitY=0.5;exitDx=0;exitDy=0;" edge="1" parent="1" source="v-Di3Hc3oVgs2gPmcvR6-3" target="v-Di3Hc3oVgs2gPmcvR6-8">
          <mxGeometry width="50" height="50" relative="1" as="geometry">
            <mxPoint x="-270" y="490" as="sourcePoint" />
            <mxPoint x="-270" y="360" as="targetPoint" />
          </mxGeometry>
        </mxCell>
        <mxCell id="v-Di3Hc3oVgs2gPmcvR6-14" value="" style="endArrow=none;html=1;rounded=0;exitX=1;exitY=0.5;exitDx=0;exitDy=0;" edge="1" parent="1">
          <mxGeometry width="50" height="50" relative="1" as="geometry">
            <mxPoint x="35" y="499.5" as="sourcePoint" />
            <mxPoint x="180" y="499.5" as="targetPoint" />
          </mxGeometry>
        </mxCell>
        <mxCell id="v-Di3Hc3oVgs2gPmcvR6-15" value="" style="endArrow=none;html=1;rounded=0;exitX=1;exitY=0.5;exitDx=0;exitDy=0;entryX=0;entryY=0.5;entryDx=0;entryDy=0;" edge="1" parent="1" target="v-Di3Hc3oVgs2gPmcvR6-87">
          <mxGeometry width="50" height="50" relative="1" as="geometry">
            <mxPoint x="280" y="499.5" as="sourcePoint" />
            <mxPoint x="425" y="499.5" as="targetPoint" />
            <Array as="points">
              <mxPoint x="450" y="500" />
            </Array>
          </mxGeometry>
        </mxCell>
        <mxCell id="v-Di3Hc3oVgs2gPmcvR6-19" value="ID_jugador" style="ellipse;whiteSpace=wrap;html=1;align=center;fontStyle=4;fillColor=#fff2cc;strokeColor=#d6b656;" vertex="1" parent="1">
          <mxGeometry x="-570" y="430" width="100" height="40" as="geometry" />
        </mxCell>
        <mxCell id="v-Di3Hc3oVgs2gPmcvR6-20" value="Nombre" style="ellipse;whiteSpace=wrap;html=1;align=center;fillColor=#fff2cc;strokeColor=#d6b656;" vertex="1" parent="1">
          <mxGeometry x="-570" y="500" width="100" height="40" as="geometry" />
        </mxCell>
        <mxCell id="v-Di3Hc3oVgs2gPmcvR6-21" value="Estadísticas de jugador" style="whiteSpace=wrap;html=1;align=center;fillColor=#d5e8d4;strokeColor=#82b366;" vertex="1" parent="1">
          <mxGeometry x="-330" y="840" width="100" height="40" as="geometry" />
        </mxCell>
        <mxCell id="v-Di3Hc3oVgs2gPmcvR6-23" value="Fecha de nacimiento" style="ellipse;whiteSpace=wrap;html=1;align=center;fillColor=#fff2cc;strokeColor=#d6b656;" vertex="1" parent="1">
          <mxGeometry x="-180" y="320" width="100" height="40" as="geometry" />
        </mxCell>
        <mxCell id="v-Di3Hc3oVgs2gPmcvR6-24" value="Dorsal" style="ellipse;whiteSpace=wrap;html=1;align=center;fillColor=#fff2cc;strokeColor=#d6b656;" vertex="1" parent="1">
          <mxGeometry x="-330" y="320" width="100" height="40" as="geometry" />
        </mxCell>
        <mxCell id="v-Di3Hc3oVgs2gPmcvR6-25" value="" style="endArrow=none;html=1;rounded=0;exitX=0;exitY=0.75;exitDx=0;exitDy=0;entryX=1;entryY=0.5;entryDx=0;entryDy=0;" edge="1" parent="1" source="v-Di3Hc3oVgs2gPmcvR6-3" target="v-Di3Hc3oVgs2gPmcvR6-20">
          <mxGeometry width="50" height="50" relative="1" as="geometry">
            <mxPoint x="-252.5" y="529" as="sourcePoint" />
            <mxPoint x="-420" y="610" as="targetPoint" />
          </mxGeometry>
        </mxCell>
        <mxCell id="v-Di3Hc3oVgs2gPmcvR6-26" value="" style="endArrow=none;html=1;rounded=0;exitX=0;exitY=1;exitDx=0;exitDy=0;entryX=1;entryY=0.5;entryDx=0;entryDy=0;" edge="1" parent="1" source="v-Di3Hc3oVgs2gPmcvR6-3" target="v-Di3Hc3oVgs2gPmcvR6-34">
          <mxGeometry width="50" height="50" relative="1" as="geometry">
            <mxPoint x="-270" y="530" as="sourcePoint" />
            <mxPoint x="-180" y="580" as="targetPoint" />
          </mxGeometry>
        </mxCell>
        <mxCell id="v-Di3Hc3oVgs2gPmcvR6-27" value="" style="endArrow=none;html=1;rounded=0;exitX=0;exitY=0.5;exitDx=0;exitDy=0;entryX=1;entryY=0.5;entryDx=0;entryDy=0;" edge="1" parent="1" source="v-Di3Hc3oVgs2gPmcvR6-3" target="v-Di3Hc3oVgs2gPmcvR6-19">
          <mxGeometry width="50" height="50" relative="1" as="geometry">
            <mxPoint x="-260" y="540" as="sourcePoint" />
            <mxPoint x="-310" y="600" as="targetPoint" />
          </mxGeometry>
        </mxCell>
        <mxCell id="v-Di3Hc3oVgs2gPmcvR6-28" value="" style="endArrow=none;html=1;rounded=0;exitX=0.25;exitY=0;exitDx=0;exitDy=0;entryX=1;entryY=0.5;entryDx=0;entryDy=0;" edge="1" parent="1" source="v-Di3Hc3oVgs2gPmcvR6-3" target="v-Di3Hc3oVgs2gPmcvR6-129">
          <mxGeometry width="50" height="50" relative="1" as="geometry">
            <mxPoint x="-320" y="530" as="sourcePoint" />
            <mxPoint x="-500" y="500" as="targetPoint" />
          </mxGeometry>
        </mxCell>
        <mxCell id="v-Di3Hc3oVgs2gPmcvR6-30" value="" style="endArrow=none;html=1;rounded=0;exitX=0.5;exitY=0;exitDx=0;exitDy=0;entryX=0.5;entryY=1;entryDx=0;entryDy=0;" edge="1" parent="1" source="v-Di3Hc3oVgs2gPmcvR6-3" target="v-Di3Hc3oVgs2gPmcvR6-24">
          <mxGeometry width="50" height="50" relative="1" as="geometry">
            <mxPoint x="-320" y="500" as="sourcePoint" />
            <mxPoint x="-500" y="480" as="targetPoint" />
          </mxGeometry>
        </mxCell>
        <mxCell id="v-Di3Hc3oVgs2gPmcvR6-31" value="" style="endArrow=none;html=1;rounded=0;exitX=0.75;exitY=0;exitDx=0;exitDy=0;entryX=0.5;entryY=1;entryDx=0;entryDy=0;" edge="1" parent="1" source="v-Di3Hc3oVgs2gPmcvR6-3" target="v-Di3Hc3oVgs2gPmcvR6-23">
          <mxGeometry width="50" height="50" relative="1" as="geometry">
            <mxPoint x="-320" y="490" as="sourcePoint" />
            <mxPoint x="-505" y="434" as="targetPoint" />
          </mxGeometry>
        </mxCell>
        <mxCell id="v-Di3Hc3oVgs2gPmcvR6-33" value="Tiene" style="shape=rhombus;perimeter=rhombusPerimeter;whiteSpace=wrap;html=1;align=center;fillColor=#f8cecc;strokeColor=#b85450;" vertex="1" parent="1">
          <mxGeometry x="-340" y="650" width="120" height="60" as="geometry" />
        </mxCell>
        <mxCell id="v-Di3Hc3oVgs2gPmcvR6-34" value="Apellidos" style="ellipse;whiteSpace=wrap;html=1;align=center;fillColor=#fff2cc;strokeColor=#d6b656;" vertex="1" parent="1">
          <mxGeometry x="-570" y="570" width="100" height="40" as="geometry" />
        </mxCell>
        <mxCell id="v-Di3Hc3oVgs2gPmcvR6-35" value="Tiene" style="shape=rhombus;perimeter=rhombusPerimeter;whiteSpace=wrap;html=1;align=center;fillColor=#f8cecc;strokeColor=#b85450;" vertex="1" parent="1">
          <mxGeometry x="170" y="650" width="120" height="60" as="geometry" />
        </mxCell>
        <mxCell id="v-Di3Hc3oVgs2gPmcvR6-36" value="Estadística de equipo" style="whiteSpace=wrap;html=1;align=center;fillColor=#d5e8d4;strokeColor=#82b366;" vertex="1" parent="1">
          <mxGeometry x="180" y="840" width="100" height="40" as="geometry" />
        </mxCell>
        <mxCell id="v-Di3Hc3oVgs2gPmcvR6-37" value="" style="endArrow=none;html=1;rounded=0;entryX=0.5;entryY=1;entryDx=0;entryDy=0;exitX=0.5;exitY=0;exitDx=0;exitDy=0;" edge="1" parent="1">
          <mxGeometry width="50" height="50" relative="1" as="geometry">
            <mxPoint x="229" y="840" as="sourcePoint" />
            <mxPoint x="229" y="710" as="targetPoint" />
          </mxGeometry>
        </mxCell>
        <mxCell id="v-Di3Hc3oVgs2gPmcvR6-38" value="Estadio" style="ellipse;whiteSpace=wrap;html=1;align=center;fillColor=#fff2cc;strokeColor=#d6b656;" vertex="1" parent="1">
          <mxGeometry x="50" y="400" width="100" height="40" as="geometry" />
        </mxCell>
        <mxCell id="v-Di3Hc3oVgs2gPmcvR6-39" value="Fecha de fundación" style="ellipse;whiteSpace=wrap;html=1;align=center;fillColor=#fff2cc;strokeColor=#d6b656;" vertex="1" parent="1">
          <mxGeometry x="340" y="450" width="100" height="40" as="geometry" />
        </mxCell>
        <mxCell id="v-Di3Hc3oVgs2gPmcvR6-40" value="Logo" style="ellipse;whiteSpace=wrap;html=1;align=center;fillColor=#fff2cc;strokeColor=#d6b656;" vertex="1" parent="1">
          <mxGeometry x="350" y="390" width="100" height="40" as="geometry" />
        </mxCell>
        <mxCell id="v-Di3Hc3oVgs2gPmcvR6-41" value="Capacidad" style="ellipse;whiteSpace=wrap;html=1;align=center;fillColor=#fff2cc;strokeColor=#d6b656;" vertex="1" parent="1">
          <mxGeometry x="35" y="330" width="100" height="40" as="geometry" />
        </mxCell>
        <mxCell id="v-Di3Hc3oVgs2gPmcvR6-42" value="Dirección" style="ellipse;whiteSpace=wrap;html=1;align=center;fillColor=#fff2cc;strokeColor=#d6b656;" vertex="1" parent="1">
          <mxGeometry x="-65" y="380" width="100" height="40" as="geometry" />
        </mxCell>
        <mxCell id="v-Di3Hc3oVgs2gPmcvR6-43" value="" style="endArrow=none;html=1;rounded=0;exitX=0.25;exitY=0;exitDx=0;exitDy=0;entryX=1;entryY=0.5;entryDx=0;entryDy=0;" edge="1" parent="1" source="v-Di3Hc3oVgs2gPmcvR6-1" target="v-Di3Hc3oVgs2gPmcvR6-38">
          <mxGeometry width="50" height="50" relative="1" as="geometry">
            <mxPoint x="190" y="490" as="sourcePoint" />
            <mxPoint x="160" y="480" as="targetPoint" />
          </mxGeometry>
        </mxCell>
        <mxCell id="v-Di3Hc3oVgs2gPmcvR6-44" value="" style="endArrow=none;html=1;rounded=0;exitX=0.5;exitY=0;exitDx=0;exitDy=0;entryX=0.5;entryY=1;entryDx=0;entryDy=0;" edge="1" parent="1" source="v-Di3Hc3oVgs2gPmcvR6-38" target="v-Di3Hc3oVgs2gPmcvR6-41">
          <mxGeometry width="50" height="50" relative="1" as="geometry">
            <mxPoint x="215" y="490" as="sourcePoint" />
            <mxPoint x="160" y="430" as="targetPoint" />
          </mxGeometry>
        </mxCell>
        <mxCell id="v-Di3Hc3oVgs2gPmcvR6-45" value="" style="endArrow=none;html=1;rounded=0;exitX=0;exitY=0;exitDx=0;exitDy=0;entryX=1;entryY=0.5;entryDx=0;entryDy=0;" edge="1" parent="1" source="v-Di3Hc3oVgs2gPmcvR6-38" target="v-Di3Hc3oVgs2gPmcvR6-42">
          <mxGeometry width="50" height="50" relative="1" as="geometry">
            <mxPoint x="215" y="490" as="sourcePoint" />
            <mxPoint x="160" y="430" as="targetPoint" />
          </mxGeometry>
        </mxCell>
        <mxCell id="v-Di3Hc3oVgs2gPmcvR6-46" value="" style="endArrow=none;html=1;rounded=0;exitX=1;exitY=0;exitDx=0;exitDy=0;entryX=0;entryY=0.5;entryDx=0;entryDy=0;" edge="1" parent="1" source="v-Di3Hc3oVgs2gPmcvR6-1" target="v-Di3Hc3oVgs2gPmcvR6-40">
          <mxGeometry width="50" height="50" relative="1" as="geometry">
            <mxPoint x="265" y="490" as="sourcePoint" />
            <mxPoint x="290" y="380" as="targetPoint" />
          </mxGeometry>
        </mxCell>
        <mxCell id="v-Di3Hc3oVgs2gPmcvR6-47" value="" style="endArrow=none;html=1;rounded=0;exitX=1;exitY=0.25;exitDx=0;exitDy=0;entryX=0;entryY=0.5;entryDx=0;entryDy=0;" edge="1" parent="1" source="v-Di3Hc3oVgs2gPmcvR6-1" target="v-Di3Hc3oVgs2gPmcvR6-39">
          <mxGeometry width="50" height="50" relative="1" as="geometry">
            <mxPoint x="290" y="490" as="sourcePoint" />
            <mxPoint x="299" y="438" as="targetPoint" />
          </mxGeometry>
        </mxCell>
        <mxCell id="v-Di3Hc3oVgs2gPmcvR6-48" value="ID EstadisticaJugador" style="ellipse;whiteSpace=wrap;html=1;align=center;fontStyle=4;fillColor=#fff2cc;strokeColor=#d6b656;" vertex="1" parent="1">
          <mxGeometry x="-510" y="840" width="130" height="40" as="geometry" />
        </mxCell>
        <mxCell id="v-Di3Hc3oVgs2gPmcvR6-49" value="Tarjetas&amp;nbsp;&lt;br&gt;amarillas" style="ellipse;whiteSpace=wrap;html=1;align=center;fillColor=#fff2cc;strokeColor=#d6b656;" vertex="1" parent="1">
          <mxGeometry x="-500" y="900" width="100" height="40" as="geometry" />
        </mxCell>
        <mxCell id="v-Di3Hc3oVgs2gPmcvR6-50" value="Tarjetas&lt;br&gt;rojas" style="ellipse;whiteSpace=wrap;html=1;align=center;fillColor=#fff2cc;strokeColor=#d6b656;" vertex="1" parent="1">
          <mxGeometry x="-475" y="950" width="100" height="40" as="geometry" />
        </mxCell>
        <mxCell id="v-Di3Hc3oVgs2gPmcvR6-51" value="Minutos&lt;br&gt;jugados" style="ellipse;whiteSpace=wrap;html=1;align=center;fillColor=#fff2cc;strokeColor=#d6b656;" vertex="1" parent="1">
          <mxGeometry x="-270" y="970" width="100" height="40" as="geometry" />
        </mxCell>
        <mxCell id="v-Di3Hc3oVgs2gPmcvR6-52" value="Asistencias" style="ellipse;whiteSpace=wrap;html=1;align=center;fillColor=#fff2cc;strokeColor=#d6b656;" vertex="1" parent="1">
          <mxGeometry x="-140" y="900" width="100" height="40" as="geometry" />
        </mxCell>
        <mxCell id="v-Di3Hc3oVgs2gPmcvR6-53" value="Goles" style="ellipse;whiteSpace=wrap;html=1;align=center;fillColor=#fff2cc;strokeColor=#d6b656;" vertex="1" parent="1">
          <mxGeometry x="-180" y="950" width="100" height="40" as="geometry" />
        </mxCell>
        <mxCell id="v-Di3Hc3oVgs2gPmcvR6-54" value="" style="endArrow=none;html=1;rounded=0;exitX=0;exitY=0.5;exitDx=0;exitDy=0;entryX=1;entryY=0.5;entryDx=0;entryDy=0;" edge="1" parent="1" source="v-Di3Hc3oVgs2gPmcvR6-21" target="v-Di3Hc3oVgs2gPmcvR6-48">
          <mxGeometry width="50" height="50" relative="1" as="geometry">
            <mxPoint x="-295" y="530" as="sourcePoint" />
            <mxPoint x="-365" y="640" as="targetPoint" />
          </mxGeometry>
        </mxCell>
        <mxCell id="v-Di3Hc3oVgs2gPmcvR6-55" value="" style="endArrow=none;html=1;rounded=0;exitX=0;exitY=1;exitDx=0;exitDy=0;entryX=1;entryY=0.5;entryDx=0;entryDy=0;" edge="1" parent="1" source="v-Di3Hc3oVgs2gPmcvR6-21" target="v-Di3Hc3oVgs2gPmcvR6-49">
          <mxGeometry width="50" height="50" relative="1" as="geometry">
            <mxPoint x="-295" y="530" as="sourcePoint" />
            <mxPoint x="-365" y="640" as="targetPoint" />
          </mxGeometry>
        </mxCell>
        <mxCell id="v-Di3Hc3oVgs2gPmcvR6-56" value="" style="endArrow=none;html=1;rounded=0;exitX=0.25;exitY=1;exitDx=0;exitDy=0;entryX=1;entryY=0;entryDx=0;entryDy=0;" edge="1" parent="1" source="v-Di3Hc3oVgs2gPmcvR6-21" target="v-Di3Hc3oVgs2gPmcvR6-50">
          <mxGeometry width="50" height="50" relative="1" as="geometry">
            <mxPoint x="-295" y="530" as="sourcePoint" />
            <mxPoint x="-365" y="640" as="targetPoint" />
          </mxGeometry>
        </mxCell>
        <mxCell id="v-Di3Hc3oVgs2gPmcvR6-57" value="" style="endArrow=none;html=1;rounded=0;exitX=0.75;exitY=1;exitDx=0;exitDy=0;entryX=0.5;entryY=0;entryDx=0;entryDy=0;" edge="1" parent="1" source="v-Di3Hc3oVgs2gPmcvR6-21" target="v-Di3Hc3oVgs2gPmcvR6-51">
          <mxGeometry width="50" height="50" relative="1" as="geometry">
            <mxPoint x="-295" y="890" as="sourcePoint" />
            <mxPoint x="-355" y="976" as="targetPoint" />
          </mxGeometry>
        </mxCell>
        <mxCell id="v-Di3Hc3oVgs2gPmcvR6-58" value="" style="endArrow=none;html=1;rounded=0;exitX=1;exitY=1;exitDx=0;exitDy=0;entryX=0;entryY=0;entryDx=0;entryDy=0;" edge="1" parent="1" source="v-Di3Hc3oVgs2gPmcvR6-21" target="v-Di3Hc3oVgs2gPmcvR6-53">
          <mxGeometry width="50" height="50" relative="1" as="geometry">
            <mxPoint x="-285" y="900" as="sourcePoint" />
            <mxPoint x="-345" y="986" as="targetPoint" />
          </mxGeometry>
        </mxCell>
        <mxCell id="v-Di3Hc3oVgs2gPmcvR6-59" value="" style="endArrow=none;html=1;rounded=0;exitX=1;exitY=0.5;exitDx=0;exitDy=0;entryX=0;entryY=0.5;entryDx=0;entryDy=0;" edge="1" parent="1" source="v-Di3Hc3oVgs2gPmcvR6-21" target="v-Di3Hc3oVgs2gPmcvR6-52">
          <mxGeometry width="50" height="50" relative="1" as="geometry">
            <mxPoint x="-275" y="910" as="sourcePoint" />
            <mxPoint x="-335" y="996" as="targetPoint" />
          </mxGeometry>
        </mxCell>
        <mxCell id="v-Di3Hc3oVgs2gPmcvR6-60" value="Nombre" style="ellipse;whiteSpace=wrap;html=1;align=center;fontStyle=4;fillColor=#fff2cc;strokeColor=#d6b656;" vertex="1" parent="1">
          <mxGeometry x="180" y="10" width="100" height="40" as="geometry" />
        </mxCell>
        <mxCell id="v-Di3Hc3oVgs2gPmcvR6-61" value="Estado" style="ellipse;whiteSpace=wrap;html=1;align=center;fillColor=#fff2cc;strokeColor=#d6b656;" vertex="1" parent="1">
          <mxGeometry x="-380" y="970" width="100" height="40" as="geometry" />
        </mxCell>
        <mxCell id="v-Di3Hc3oVgs2gPmcvR6-62" value="" style="endArrow=none;html=1;rounded=0;exitX=0.5;exitY=1;exitDx=0;exitDy=0;entryX=0.5;entryY=0;entryDx=0;entryDy=0;" edge="1" parent="1" source="v-Di3Hc3oVgs2gPmcvR6-21" target="v-Di3Hc3oVgs2gPmcvR6-61">
          <mxGeometry width="50" height="50" relative="1" as="geometry">
            <mxPoint x="-245" y="890" as="sourcePoint" />
            <mxPoint x="-210" y="980" as="targetPoint" />
          </mxGeometry>
        </mxCell>
        <mxCell id="v-Di3Hc3oVgs2gPmcvR6-63" value="Código EstadisticaEquipo" style="ellipse;whiteSpace=wrap;html=1;align=center;fontStyle=4;fillColor=#fff2cc;strokeColor=#d6b656;" vertex="1" parent="1">
          <mxGeometry x="-40" y="840" width="130" height="40" as="geometry" />
        </mxCell>
        <mxCell id="v-Di3Hc3oVgs2gPmcvR6-64" value="Partidos&lt;br&gt;ganados" style="ellipse;whiteSpace=wrap;html=1;align=center;fillColor=#fff2cc;strokeColor=#d6b656;" vertex="1" parent="1">
          <mxGeometry x="10" y="990" width="100" height="40" as="geometry" />
        </mxCell>
        <mxCell id="v-Di3Hc3oVgs2gPmcvR6-65" value="Partidos&lt;br&gt;empatados" style="ellipse;whiteSpace=wrap;html=1;align=center;fillColor=#fff2cc;strokeColor=#d6b656;" vertex="1" parent="1">
          <mxGeometry x="110" y="1010" width="100" height="40" as="geometry" />
        </mxCell>
        <mxCell id="v-Di3Hc3oVgs2gPmcvR6-66" value="Partidos&lt;br&gt;perdidos" style="ellipse;whiteSpace=wrap;html=1;align=center;fillColor=#fff2cc;strokeColor=#d6b656;" vertex="1" parent="1">
          <mxGeometry x="230" y="1010" width="100" height="40" as="geometry" />
        </mxCell>
        <mxCell id="v-Di3Hc3oVgs2gPmcvR6-67" value="Puntos" style="ellipse;whiteSpace=wrap;html=1;align=center;fillColor=#fff2cc;strokeColor=#d6b656;" vertex="1" parent="1">
          <mxGeometry x="320" y="960" width="100" height="40" as="geometry" />
        </mxCell>
        <mxCell id="v-Di3Hc3oVgs2gPmcvR6-68" value="" style="endArrow=none;html=1;rounded=0;exitX=0.5;exitY=0;exitDx=0;exitDy=0;entryX=0;entryY=1;entryDx=0;entryDy=0;" edge="1" parent="1" source="v-Di3Hc3oVgs2gPmcvR6-64" target="v-Di3Hc3oVgs2gPmcvR6-36">
          <mxGeometry width="50" height="50" relative="1" as="geometry">
            <mxPoint x="-220" y="870" as="sourcePoint" />
            <mxPoint x="-130" y="930" as="targetPoint" />
          </mxGeometry>
        </mxCell>
        <mxCell id="v-Di3Hc3oVgs2gPmcvR6-69" value="" style="endArrow=none;html=1;rounded=0;exitX=0.5;exitY=0;exitDx=0;exitDy=0;entryX=0.33;entryY=0.975;entryDx=0;entryDy=0;entryPerimeter=0;" edge="1" parent="1" source="v-Di3Hc3oVgs2gPmcvR6-65" target="v-Di3Hc3oVgs2gPmcvR6-36">
          <mxGeometry width="50" height="50" relative="1" as="geometry">
            <mxPoint x="20" y="960" as="sourcePoint" />
            <mxPoint x="80" y="890" as="targetPoint" />
          </mxGeometry>
        </mxCell>
        <mxCell id="v-Di3Hc3oVgs2gPmcvR6-70" value="" style="endArrow=none;html=1;rounded=0;exitX=0.5;exitY=0;exitDx=0;exitDy=0;entryX=0.75;entryY=1;entryDx=0;entryDy=0;" edge="1" parent="1" source="v-Di3Hc3oVgs2gPmcvR6-66" target="v-Di3Hc3oVgs2gPmcvR6-36">
          <mxGeometry width="50" height="50" relative="1" as="geometry">
            <mxPoint x="70" y="1030" as="sourcePoint" />
            <mxPoint x="140" y="870" as="targetPoint" />
          </mxGeometry>
        </mxCell>
        <mxCell id="v-Di3Hc3oVgs2gPmcvR6-71" value="" style="endArrow=none;html=1;rounded=0;exitX=0.5;exitY=0;exitDx=0;exitDy=0;entryX=1;entryY=1;entryDx=0;entryDy=0;" edge="1" parent="1" source="v-Di3Hc3oVgs2gPmcvR6-67" target="v-Di3Hc3oVgs2gPmcvR6-36">
          <mxGeometry width="50" height="50" relative="1" as="geometry">
            <mxPoint x="190" y="1030" as="sourcePoint" />
            <mxPoint x="146" y="888" as="targetPoint" />
          </mxGeometry>
        </mxCell>
        <mxCell id="v-Di3Hc3oVgs2gPmcvR6-72" value="" style="endArrow=none;html=1;rounded=0;exitX=1;exitY=0.5;exitDx=0;exitDy=0;entryX=0;entryY=0.5;entryDx=0;entryDy=0;" edge="1" parent="1" source="v-Di3Hc3oVgs2gPmcvR6-63" target="v-Di3Hc3oVgs2gPmcvR6-36">
          <mxGeometry width="50" height="50" relative="1" as="geometry">
            <mxPoint x="20" y="960" as="sourcePoint" />
            <mxPoint x="80" y="890" as="targetPoint" />
          </mxGeometry>
        </mxCell>
        <mxCell id="v-Di3Hc3oVgs2gPmcvR6-73" value="ID Partido" style="ellipse;whiteSpace=wrap;html=1;align=center;fontStyle=4;fillColor=#fff2cc;strokeColor=#d6b656;" vertex="1" parent="1">
          <mxGeometry x="770" y="570" width="100" height="40" as="geometry" />
        </mxCell>
        <mxCell id="v-Di3Hc3oVgs2gPmcvR6-74" value="Resultado" style="ellipse;whiteSpace=wrap;html=1;align=center;fillColor=#fff2cc;strokeColor=#d6b656;" vertex="1" parent="1">
          <mxGeometry x="610" y="570" width="100" height="40" as="geometry" />
        </mxCell>
        <mxCell id="v-Di3Hc3oVgs2gPmcvR6-75" value="" style="endArrow=none;html=1;rounded=0;entryX=0;entryY=1;entryDx=0;entryDy=0;exitX=0.5;exitY=0;exitDx=0;exitDy=0;" edge="1" parent="1" source="v-Di3Hc3oVgs2gPmcvR6-74" target="v-Di3Hc3oVgs2gPmcvR6-4">
          <mxGeometry width="50" height="50" relative="1" as="geometry">
            <mxPoint x="495" y="480" as="sourcePoint" />
            <mxPoint x="495" y="420" as="targetPoint" />
          </mxGeometry>
        </mxCell>
        <mxCell id="v-Di3Hc3oVgs2gPmcvR6-76" value="" style="endArrow=none;html=1;rounded=0;entryX=1;entryY=1;entryDx=0;entryDy=0;exitX=0.5;exitY=0;exitDx=0;exitDy=0;" edge="1" parent="1" source="v-Di3Hc3oVgs2gPmcvR6-73" target="v-Di3Hc3oVgs2gPmcvR6-4">
          <mxGeometry width="50" height="50" relative="1" as="geometry">
            <mxPoint x="640" y="560" as="sourcePoint" />
            <mxPoint x="700" y="530" as="targetPoint" />
          </mxGeometry>
        </mxCell>
        <mxCell id="v-Di3Hc3oVgs2gPmcvR6-77" value="Nombre de Equipo" style="ellipse;whiteSpace=wrap;html=1;align=center;fontStyle=4;fillColor=#fff2cc;strokeColor=#d6b656;" vertex="1" parent="1">
          <mxGeometry x="310" y="330" width="100" height="40" as="geometry" />
        </mxCell>
        <mxCell id="v-Di3Hc3oVgs2gPmcvR6-78" value="" style="endArrow=none;html=1;rounded=0;exitX=0.75;exitY=0;exitDx=0;exitDy=0;entryX=0;entryY=1;entryDx=0;entryDy=0;" edge="1" parent="1" source="v-Di3Hc3oVgs2gPmcvR6-1" target="v-Di3Hc3oVgs2gPmcvR6-77">
          <mxGeometry width="50" height="50" relative="1" as="geometry">
            <mxPoint x="290" y="490" as="sourcePoint" />
            <mxPoint x="300" y="430" as="targetPoint" />
          </mxGeometry>
        </mxCell>
        <mxCell id="v-Di3Hc3oVgs2gPmcvR6-79" value="Evento rel." style="ellipse;whiteSpace=wrap;html=1;align=center;fillColor=#fff2cc;strokeColor=#d6b656;" vertex="1" parent="1">
          <mxGeometry x="690" y="930" width="100" height="40" as="geometry" />
        </mxCell>
        <mxCell id="v-Di3Hc3oVgs2gPmcvR6-80" value="Minuto" style="ellipse;whiteSpace=wrap;html=1;align=center;fillColor=#fff2cc;strokeColor=#d6b656;" vertex="1" parent="1">
          <mxGeometry x="830" y="920" width="100" height="40" as="geometry" />
        </mxCell>
        <mxCell id="v-Di3Hc3oVgs2gPmcvR6-81" value="Código&lt;br&gt;Estadística&lt;br&gt;de Partido" style="ellipse;whiteSpace=wrap;html=1;align=center;fontStyle=4;fillColor=#fff2cc;strokeColor=#d6b656;" vertex="1" parent="1">
          <mxGeometry x="560" y="910" width="110" height="50" as="geometry" />
        </mxCell>
        <mxCell id="v-Di3Hc3oVgs2gPmcvR6-82" value="ID Arbitro" style="ellipse;whiteSpace=wrap;html=1;align=center;fontStyle=4;fillColor=#fff2cc;strokeColor=#d6b656;" vertex="1" parent="1">
          <mxGeometry x="500" y="60" width="100" height="40" as="geometry" />
        </mxCell>
        <mxCell id="v-Di3Hc3oVgs2gPmcvR6-83" value="Nombre" style="ellipse;whiteSpace=wrap;html=1;align=center;fillColor=#fff2cc;strokeColor=#d6b656;" vertex="1" parent="1">
          <mxGeometry x="680" y="20" width="100" height="40" as="geometry" />
        </mxCell>
        <mxCell id="v-Di3Hc3oVgs2gPmcvR6-84" value="Apellidos" style="ellipse;whiteSpace=wrap;html=1;align=center;fillColor=#fff2cc;strokeColor=#d6b656;" vertex="1" parent="1">
          <mxGeometry x="820" y="40" width="100" height="40" as="geometry" />
        </mxCell>
        <mxCell id="v-Di3Hc3oVgs2gPmcvR6-85" value="Tipo de árbitro" style="ellipse;whiteSpace=wrap;html=1;align=center;fillColor=#fff2cc;strokeColor=#d6b656;" vertex="1" parent="1">
          <mxGeometry x="930" y="120" width="100" height="40" as="geometry" />
        </mxCell>
        <mxCell id="v-Di3Hc3oVgs2gPmcvR6-86" value="Categoría" style="ellipse;whiteSpace=wrap;html=1;align=center;fillColor=#fff2cc;strokeColor=#d6b656;" vertex="1" parent="1">
          <mxGeometry x="500" y="140" width="100" height="40" as="geometry" />
        </mxCell>
        <mxCell id="v-Di3Hc3oVgs2gPmcvR6-87" value="Juega" style="shape=rhombus;perimeter=rhombusPerimeter;whiteSpace=wrap;html=1;align=center;fillColor=#f8cecc;strokeColor=#b85450;" vertex="1" parent="1">
          <mxGeometry x="450" y="470" width="120" height="60" as="geometry" />
        </mxCell>
        <mxCell id="v-Di3Hc3oVgs2gPmcvR6-88" value="" style="endArrow=none;html=1;rounded=0;" edge="1" parent="1">
          <mxGeometry width="50" height="50" relative="1" as="geometry">
            <mxPoint x="570" y="500" as="sourcePoint" />
            <mxPoint x="690" y="500" as="targetPoint" />
          </mxGeometry>
        </mxCell>
        <mxCell id="v-Di3Hc3oVgs2gPmcvR6-91" value="Fecha" style="ellipse;whiteSpace=wrap;html=1;align=center;fillColor=#fff2cc;strokeColor=#d6b656;" vertex="1" parent="1">
          <mxGeometry x="610" y="400" width="100" height="40" as="geometry" />
        </mxCell>
        <mxCell id="v-Di3Hc3oVgs2gPmcvR6-92" value="Hora" style="ellipse;whiteSpace=wrap;html=1;align=center;fillColor=#fff2cc;strokeColor=#d6b656;" vertex="1" parent="1">
          <mxGeometry x="770" y="400" width="100" height="40" as="geometry" />
        </mxCell>
        <mxCell id="v-Di3Hc3oVgs2gPmcvR6-93" value="" style="endArrow=none;html=1;rounded=0;entryX=1;entryY=1;entryDx=0;entryDy=0;exitX=0.25;exitY=0;exitDx=0;exitDy=0;" edge="1" parent="1" source="v-Di3Hc3oVgs2gPmcvR6-4" target="v-Di3Hc3oVgs2gPmcvR6-91">
          <mxGeometry width="50" height="50" relative="1" as="geometry">
            <mxPoint x="670" y="580" as="sourcePoint" />
            <mxPoint x="700" y="530" as="targetPoint" />
          </mxGeometry>
        </mxCell>
        <mxCell id="v-Di3Hc3oVgs2gPmcvR6-94" value="" style="endArrow=none;html=1;rounded=0;entryX=0;entryY=1;entryDx=0;entryDy=0;exitX=0.75;exitY=0;exitDx=0;exitDy=0;" edge="1" parent="1" source="v-Di3Hc3oVgs2gPmcvR6-4" target="v-Di3Hc3oVgs2gPmcvR6-92">
          <mxGeometry width="50" height="50" relative="1" as="geometry">
            <mxPoint x="725" y="490" as="sourcePoint" />
            <mxPoint x="705" y="444" as="targetPoint" />
          </mxGeometry>
        </mxCell>
        <mxCell id="v-Di3Hc3oVgs2gPmcvR6-95" value="1" style="text;html=1;strokeColor=none;fillColor=none;align=center;verticalAlign=middle;whiteSpace=wrap;rounded=0;" vertex="1" parent="1">
          <mxGeometry x="-280" y="630" width="60" height="30" as="geometry" />
        </mxCell>
        <mxCell id="v-Di3Hc3oVgs2gPmcvR6-96" value="1" style="text;html=1;strokeColor=none;fillColor=none;align=center;verticalAlign=middle;whiteSpace=wrap;rounded=0;" vertex="1" parent="1">
          <mxGeometry x="-280" y="710" width="60" height="30" as="geometry" />
        </mxCell>
        <mxCell id="v-Di3Hc3oVgs2gPmcvR6-97" value="1" style="text;html=1;strokeColor=none;fillColor=none;align=center;verticalAlign=middle;whiteSpace=wrap;rounded=0;" vertex="1" parent="1">
          <mxGeometry y="455" width="60" height="30" as="geometry" />
        </mxCell>
        <mxCell id="v-Di3Hc3oVgs2gPmcvR6-98" value="N" style="text;html=1;strokeColor=none;fillColor=none;align=center;verticalAlign=middle;whiteSpace=wrap;rounded=0;" vertex="1" parent="1">
          <mxGeometry x="-120" y="460" width="60" height="30" as="geometry" />
        </mxCell>
        <mxCell id="v-Di3Hc3oVgs2gPmcvR6-99" value="1" style="text;html=1;strokeColor=none;fillColor=none;align=center;verticalAlign=middle;whiteSpace=wrap;rounded=0;" vertex="1" parent="1">
          <mxGeometry x="150" y="620" width="60" height="30" as="geometry" />
        </mxCell>
        <mxCell id="v-Di3Hc3oVgs2gPmcvR6-100" value="1" style="text;html=1;strokeColor=none;fillColor=none;align=center;verticalAlign=middle;whiteSpace=wrap;rounded=0;" vertex="1" parent="1">
          <mxGeometry x="150" y="720" width="60" height="30" as="geometry" />
        </mxCell>
        <mxCell id="v-Di3Hc3oVgs2gPmcvR6-101" value="N" style="text;html=1;strokeColor=none;fillColor=none;align=center;verticalAlign=middle;whiteSpace=wrap;rounded=0;" vertex="1" parent="1">
          <mxGeometry x="440" y="440" width="60" height="30" as="geometry" />
        </mxCell>
        <mxCell id="v-Di3Hc3oVgs2gPmcvR6-102" value="M" style="text;html=1;strokeColor=none;fillColor=none;align=center;verticalAlign=middle;whiteSpace=wrap;rounded=0;" vertex="1" parent="1">
          <mxGeometry x="530" y="440" width="60" height="30" as="geometry" />
        </mxCell>
        <mxCell id="v-Di3Hc3oVgs2gPmcvR6-105" value="" style="endArrow=none;html=1;rounded=0;entryX=0.5;entryY=1;entryDx=0;entryDy=0;exitX=0.5;exitY=0;exitDx=0;exitDy=0;" edge="1" parent="1">
          <mxGeometry width="50" height="50" relative="1" as="geometry">
            <mxPoint x="739.5" y="650" as="sourcePoint" />
            <mxPoint x="739.5" y="520" as="targetPoint" />
          </mxGeometry>
        </mxCell>
        <mxCell id="v-Di3Hc3oVgs2gPmcvR6-106" value="Tipo" style="ellipse;whiteSpace=wrap;html=1;align=center;fillColor=#fff2cc;strokeColor=#d6b656;" vertex="1" parent="1">
          <mxGeometry x="460" y="580" width="100" height="40" as="geometry" />
        </mxCell>
        <mxCell id="v-Di3Hc3oVgs2gPmcvR6-107" value="" style="endArrow=none;html=1;rounded=0;entryX=0.5;entryY=1;entryDx=0;entryDy=0;exitX=0.5;exitY=0;exitDx=0;exitDy=0;" edge="1" parent="1">
          <mxGeometry width="50" height="50" relative="1" as="geometry">
            <mxPoint x="739" y="840" as="sourcePoint" />
            <mxPoint x="739" y="710" as="targetPoint" />
          </mxGeometry>
        </mxCell>
        <mxCell id="v-Di3Hc3oVgs2gPmcvR6-108" value="" style="endArrow=none;html=1;rounded=0;exitX=0.5;exitY=0;exitDx=0;exitDy=0;entryX=0;entryY=1;entryDx=0;entryDy=0;" edge="1" parent="1" source="v-Di3Hc3oVgs2gPmcvR6-81" target="v-Di3Hc3oVgs2gPmcvR6-2">
          <mxGeometry width="50" height="50" relative="1" as="geometry">
            <mxPoint x="660" y="880" as="sourcePoint" />
            <mxPoint x="580" y="810" as="targetPoint" />
          </mxGeometry>
        </mxCell>
        <mxCell id="v-Di3Hc3oVgs2gPmcvR6-109" value="" style="endArrow=none;html=1;rounded=0;exitX=0.5;exitY=0;exitDx=0;exitDy=0;entryX=0.5;entryY=1;entryDx=0;entryDy=0;" edge="1" parent="1" source="v-Di3Hc3oVgs2gPmcvR6-106" target="v-Di3Hc3oVgs2gPmcvR6-87">
          <mxGeometry width="50" height="50" relative="1" as="geometry">
            <mxPoint x="260" y="960" as="sourcePoint" />
            <mxPoint x="180" y="890" as="targetPoint" />
          </mxGeometry>
        </mxCell>
        <mxCell id="v-Di3Hc3oVgs2gPmcvR6-110" value="" style="endArrow=none;html=1;rounded=0;entryX=0.5;entryY=1;entryDx=0;entryDy=0;exitX=0.5;exitY=0;exitDx=0;exitDy=0;" edge="1" parent="1">
          <mxGeometry width="50" height="50" relative="1" as="geometry">
            <mxPoint x="739.5" y="480" as="sourcePoint" />
            <mxPoint x="739.5" y="350" as="targetPoint" />
          </mxGeometry>
        </mxCell>
        <mxCell id="v-Di3Hc3oVgs2gPmcvR6-111" value="" style="endArrow=none;html=1;rounded=0;entryX=0.5;entryY=1;entryDx=0;entryDy=0;exitX=0.5;exitY=0;exitDx=0;exitDy=0;" edge="1" parent="1">
          <mxGeometry width="50" height="50" relative="1" as="geometry">
            <mxPoint x="740" y="290" as="sourcePoint" />
            <mxPoint x="740" y="160" as="targetPoint" />
          </mxGeometry>
        </mxCell>
        <mxCell id="v-Di3Hc3oVgs2gPmcvR6-112" value="" style="endArrow=none;html=1;rounded=0;entryX=1;entryY=0.5;entryDx=0;entryDy=0;" edge="1" parent="1" target="v-Di3Hc3oVgs2gPmcvR6-82">
          <mxGeometry width="50" height="50" relative="1" as="geometry">
            <mxPoint x="690" y="125" as="sourcePoint" />
            <mxPoint x="637.5" y="65" as="targetPoint" />
          </mxGeometry>
        </mxCell>
        <mxCell id="v-Di3Hc3oVgs2gPmcvR6-113" value="" style="endArrow=none;html=1;rounded=0;exitX=0;exitY=0.5;exitDx=0;exitDy=0;entryX=1;entryY=0.5;entryDx=0;entryDy=0;" edge="1" parent="1" source="v-Di3Hc3oVgs2gPmcvR6-6" target="v-Di3Hc3oVgs2gPmcvR6-86">
          <mxGeometry width="50" height="50" relative="1" as="geometry">
            <mxPoint x="702.5" y="135" as="sourcePoint" />
            <mxPoint x="610" y="90" as="targetPoint" />
          </mxGeometry>
        </mxCell>
        <mxCell id="v-Di3Hc3oVgs2gPmcvR6-114" value="" style="endArrow=none;html=1;rounded=0;exitX=0.25;exitY=0;exitDx=0;exitDy=0;entryX=0.5;entryY=1;entryDx=0;entryDy=0;" edge="1" parent="1" source="v-Di3Hc3oVgs2gPmcvR6-6" target="v-Di3Hc3oVgs2gPmcvR6-83">
          <mxGeometry width="50" height="50" relative="1" as="geometry">
            <mxPoint x="700" y="150" as="sourcePoint" />
            <mxPoint x="610" y="170" as="targetPoint" />
          </mxGeometry>
        </mxCell>
        <mxCell id="v-Di3Hc3oVgs2gPmcvR6-115" value="" style="endArrow=none;html=1;rounded=0;exitX=0.75;exitY=0;exitDx=0;exitDy=0;entryX=0.5;entryY=1;entryDx=0;entryDy=0;" edge="1" parent="1" source="v-Di3Hc3oVgs2gPmcvR6-6" target="v-Di3Hc3oVgs2gPmcvR6-84">
          <mxGeometry width="50" height="50" relative="1" as="geometry">
            <mxPoint x="725" y="130" as="sourcePoint" />
            <mxPoint x="710" y="75" as="targetPoint" />
          </mxGeometry>
        </mxCell>
        <mxCell id="v-Di3Hc3oVgs2gPmcvR6-116" value="" style="endArrow=none;html=1;rounded=0;entryX=0;entryY=0.5;entryDx=0;entryDy=0;" edge="1" parent="1" source="v-Di3Hc3oVgs2gPmcvR6-6" target="v-Di3Hc3oVgs2gPmcvR6-85">
          <mxGeometry width="50" height="50" relative="1" as="geometry">
            <mxPoint x="800" y="140" as="sourcePoint" />
            <mxPoint x="910" y="100" as="targetPoint" />
          </mxGeometry>
        </mxCell>
        <mxCell id="v-Di3Hc3oVgs2gPmcvR6-117" value="N" style="text;html=1;strokeColor=none;fillColor=none;align=center;verticalAlign=middle;whiteSpace=wrap;rounded=0;" vertex="1" parent="1">
          <mxGeometry x="760" y="340" width="60" height="30" as="geometry" />
        </mxCell>
        <mxCell id="v-Di3Hc3oVgs2gPmcvR6-118" value="M" style="text;html=1;strokeColor=none;fillColor=none;align=center;verticalAlign=middle;whiteSpace=wrap;rounded=0;" vertex="1" parent="1">
          <mxGeometry x="760" y="260" width="60" height="30" as="geometry" />
        </mxCell>
        <mxCell id="v-Di3Hc3oVgs2gPmcvR6-119" value="1" style="text;html=1;strokeColor=none;fillColor=none;align=center;verticalAlign=middle;whiteSpace=wrap;rounded=0;" vertex="1" parent="1">
          <mxGeometry x="740" y="620" width="60" height="30" as="geometry" />
        </mxCell>
        <mxCell id="v-Di3Hc3oVgs2gPmcvR6-120" value="1" style="text;html=1;strokeColor=none;fillColor=none;align=center;verticalAlign=middle;whiteSpace=wrap;rounded=0;" vertex="1" parent="1">
          <mxGeometry x="740" y="710" width="60" height="30" as="geometry" />
        </mxCell>
        <mxCell id="v-Di3Hc3oVgs2gPmcvR6-121" value="" style="endArrow=none;html=1;rounded=0;entryX=0.5;entryY=1;entryDx=0;entryDy=0;exitX=0.5;exitY=0;exitDx=0;exitDy=0;" edge="1" parent="1">
          <mxGeometry width="50" height="50" relative="1" as="geometry">
            <mxPoint x="230" y="480" as="sourcePoint" />
            <mxPoint x="230" y="350" as="targetPoint" />
          </mxGeometry>
        </mxCell>
        <mxCell id="v-Di3Hc3oVgs2gPmcvR6-122" value="" style="endArrow=none;html=1;rounded=0;entryX=0.5;entryY=1;entryDx=0;entryDy=0;exitX=0.5;exitY=0;exitDx=0;exitDy=0;" edge="1" parent="1">
          <mxGeometry width="50" height="50" relative="1" as="geometry">
            <mxPoint x="230" y="290" as="sourcePoint" />
            <mxPoint x="230" y="160" as="targetPoint" />
          </mxGeometry>
        </mxCell>
        <mxCell id="v-Di3Hc3oVgs2gPmcvR6-123" value="" style="endArrow=none;html=1;rounded=0;exitX=0.5;exitY=1;exitDx=0;exitDy=0;entryX=0.5;entryY=0;entryDx=0;entryDy=0;" edge="1" parent="1" source="v-Di3Hc3oVgs2gPmcvR6-60" target="v-Di3Hc3oVgs2gPmcvR6-5">
          <mxGeometry width="50" height="50" relative="1" as="geometry">
            <mxPoint x="400" y="70" as="sourcePoint" />
            <mxPoint x="310" y="90" as="targetPoint" />
          </mxGeometry>
        </mxCell>
        <mxCell id="v-Di3Hc3oVgs2gPmcvR6-124" value="" style="endArrow=none;html=1;rounded=0;entryX=0.5;entryY=1;entryDx=0;entryDy=0;exitX=0.5;exitY=0;exitDx=0;exitDy=0;" edge="1" parent="1">
          <mxGeometry width="50" height="50" relative="1" as="geometry">
            <mxPoint x="230" y="650" as="sourcePoint" />
            <mxPoint x="230" y="520" as="targetPoint" />
          </mxGeometry>
        </mxCell>
        <mxCell id="v-Di3Hc3oVgs2gPmcvR6-125" value="N" style="text;html=1;strokeColor=none;fillColor=none;align=center;verticalAlign=middle;whiteSpace=wrap;rounded=0;" vertex="1" parent="1">
          <mxGeometry x="230" y="360" width="60" height="30" as="geometry" />
        </mxCell>
        <mxCell id="v-Di3Hc3oVgs2gPmcvR6-126" value="1" style="text;html=1;strokeColor=none;fillColor=none;align=center;verticalAlign=middle;whiteSpace=wrap;rounded=0;" vertex="1" parent="1">
          <mxGeometry x="230" y="260" width="60" height="30" as="geometry" />
        </mxCell>
        <mxCell id="v-Di3Hc3oVgs2gPmcvR6-127" value="" style="endArrow=none;html=1;rounded=0;exitX=0.5;exitY=0;exitDx=0;exitDy=0;entryX=0.5;entryY=1;entryDx=0;entryDy=0;" edge="1" parent="1" source="v-Di3Hc3oVgs2gPmcvR6-79" target="v-Di3Hc3oVgs2gPmcvR6-2">
          <mxGeometry width="50" height="50" relative="1" as="geometry">
            <mxPoint x="780" y="950" as="sourcePoint" />
            <mxPoint x="800" y="890" as="targetPoint" />
          </mxGeometry>
        </mxCell>
        <mxCell id="v-Di3Hc3oVgs2gPmcvR6-128" value="" style="endArrow=none;html=1;rounded=0;exitX=0;exitY=0;exitDx=0;exitDy=0;entryX=1;entryY=1;entryDx=0;entryDy=0;" edge="1" parent="1" source="v-Di3Hc3oVgs2gPmcvR6-80" target="v-Di3Hc3oVgs2gPmcvR6-2">
          <mxGeometry width="50" height="50" relative="1" as="geometry">
            <mxPoint x="790" y="960" as="sourcePoint" />
            <mxPoint x="810" y="900" as="targetPoint" />
          </mxGeometry>
        </mxCell>
        <mxCell id="v-Di3Hc3oVgs2gPmcvR6-129" value="Nacionalidad" style="ellipse;shape=doubleEllipse;margin=3;whiteSpace=wrap;html=1;align=center;fillColor=#fff2cc;strokeColor=#d6b656;" vertex="1" parent="1">
          <mxGeometry x="-475" y="340" width="100" height="40" as="geometry" />
        </mxCell>
        <mxCell id="v-Di3Hc3oVgs2gPmcvR6-132" value="" style="endArrow=none;html=1;rounded=0;entryX=0.5;entryY=1;entryDx=0;entryDy=0;exitX=0.5;exitY=0;exitDx=0;exitDy=0;" edge="1" parent="1">
          <mxGeometry width="50" height="50" relative="1" as="geometry">
            <mxPoint x="-280.42999999999995" y="650" as="sourcePoint" />
            <mxPoint x="-280.42999999999995" y="520" as="targetPoint" />
          </mxGeometry>
        </mxCell>
        <mxCell id="v-Di3Hc3oVgs2gPmcvR6-135" value="" style="endArrow=none;html=1;rounded=0;entryX=0.5;entryY=1;entryDx=0;entryDy=0;exitX=0.5;exitY=0;exitDx=0;exitDy=0;" edge="1" parent="1">
          <mxGeometry width="50" height="50" relative="1" as="geometry">
            <mxPoint x="-280.83000000000004" y="840" as="sourcePoint" />
            <mxPoint x="-280.83000000000004" y="710" as="targetPoint" />
          </mxGeometry>
        </mxCell>
        <mxCell id="v-Di3Hc3oVgs2gPmcvR6-136" value="" style="triangle;whiteSpace=wrap;html=1;fillColor=#dae8fc;strokeColor=#6c8ebf;" vertex="1" parent="1">
          <mxGeometry x="910" y="466" width="50" height="70" as="geometry" />
        </mxCell>
        <mxCell id="v-Di3Hc3oVgs2gPmcvR6-137" value="" style="endArrow=none;html=1;rounded=0;" edge="1" parent="1">
          <mxGeometry width="50" height="50" relative="1" as="geometry">
            <mxPoint x="790" y="500" as="sourcePoint" />
            <mxPoint x="910" y="500" as="targetPoint" />
          </mxGeometry>
        </mxCell>
        <mxCell id="v-Di3Hc3oVgs2gPmcvR6-138" value="" style="endArrow=none;html=1;rounded=0;entryX=0.034;entryY=0.017;entryDx=0;entryDy=0;exitX=0.5;exitY=1;exitDx=0;exitDy=0;entryPerimeter=0;" edge="1" parent="1" source="v-Di3Hc3oVgs2gPmcvR6-139" target="v-Di3Hc3oVgs2gPmcvR6-136">
          <mxGeometry width="50" height="50" relative="1" as="geometry">
            <mxPoint x="950" y="420" as="sourcePoint" />
            <mxPoint x="860" y="540" as="targetPoint" />
          </mxGeometry>
        </mxCell>
        <mxCell id="v-Di3Hc3oVgs2gPmcvR6-139" value="Tipo" style="ellipse;whiteSpace=wrap;html=1;align=center;fillColor=#fff2cc;strokeColor=#d6b656;" vertex="1" parent="1">
          <mxGeometry x="885" y="400" width="100" height="40" as="geometry" />
        </mxCell>
        <mxCell id="v-Di3Hc3oVgs2gPmcvR6-140" value="Liga" style="whiteSpace=wrap;html=1;align=center;fillColor=#d5e8d4;strokeColor=#82b366;" vertex="1" parent="1">
          <mxGeometry x="1130" y="410" width="100" height="40" as="geometry" />
        </mxCell>
        <mxCell id="v-Di3Hc3oVgs2gPmcvR6-141" value="Copa del Rey" style="whiteSpace=wrap;html=1;align=center;fillColor=#d5e8d4;strokeColor=#82b366;" vertex="1" parent="1">
          <mxGeometry x="1130" y="480" width="100" height="40" as="geometry" />
        </mxCell>
        <mxCell id="v-Di3Hc3oVgs2gPmcvR6-142" value="Playoff" style="whiteSpace=wrap;html=1;align=center;fillColor=#d5e8d4;strokeColor=#82b366;" vertex="1" parent="1">
          <mxGeometry x="1130" y="550" width="100" height="40" as="geometry" />
        </mxCell>
        <mxCell id="v-Di3Hc3oVgs2gPmcvR6-143" value="" style="endArrow=none;html=1;rounded=0;entryX=1;entryY=0.5;entryDx=0;entryDy=0;exitX=0;exitY=0.5;exitDx=0;exitDy=0;" edge="1" parent="1" source="v-Di3Hc3oVgs2gPmcvR6-141" target="v-Di3Hc3oVgs2gPmcvR6-136">
          <mxGeometry width="50" height="50" relative="1" as="geometry">
            <mxPoint x="900" y="560" as="sourcePoint" />
            <mxPoint x="950" y="510" as="targetPoint" />
          </mxGeometry>
        </mxCell>
        <mxCell id="v-Di3Hc3oVgs2gPmcvR6-144" value="" style="endArrow=none;html=1;rounded=0;exitX=0;exitY=0.5;exitDx=0;exitDy=0;" edge="1" parent="1" source="v-Di3Hc3oVgs2gPmcvR6-140">
          <mxGeometry width="50" height="50" relative="1" as="geometry">
            <mxPoint x="900" y="560" as="sourcePoint" />
            <mxPoint x="930" y="480" as="targetPoint" />
            <Array as="points">
              <mxPoint x="1040" y="430" />
              <mxPoint x="1040" y="480" />
            </Array>
          </mxGeometry>
        </mxCell>
        <mxCell id="v-Di3Hc3oVgs2gPmcvR6-145" value="" style="endArrow=none;html=1;rounded=0;entryX=0;entryY=0.5;entryDx=0;entryDy=0;exitX=0.5;exitY=1;exitDx=0;exitDy=0;" edge="1" parent="1" source="v-Di3Hc3oVgs2gPmcvR6-136">
          <mxGeometry width="50" height="50" relative="1" as="geometry">
            <mxPoint x="940" y="520" as="sourcePoint" />
            <mxPoint x="1129.9999999999995" y="572" as="targetPoint" />
            <Array as="points">
              <mxPoint x="1040" y="520" />
              <mxPoint x="1040" y="572" />
            </Array>
          </mxGeometry>
        </mxCell>
        <mxCell id="v-Di3Hc3oVgs2gPmcvR6-146" value="nºJornada" style="ellipse;whiteSpace=wrap;html=1;align=center;fillColor=#fff2cc;strokeColor=#d6b656;" vertex="1" parent="1">
          <mxGeometry x="1350" y="410" width="100" height="40" as="geometry" />
        </mxCell>
        <mxCell id="v-Di3Hc3oVgs2gPmcvR6-147" value="" style="endArrow=none;html=1;rounded=0;entryX=1;entryY=0.5;entryDx=0;entryDy=0;exitX=0;exitY=0.5;exitDx=0;exitDy=0;" edge="1" parent="1" source="v-Di3Hc3oVgs2gPmcvR6-146" target="v-Di3Hc3oVgs2gPmcvR6-140">
          <mxGeometry width="50" height="50" relative="1" as="geometry">
            <mxPoint x="1010" y="620" as="sourcePoint" />
            <mxPoint x="1060" y="570" as="targetPoint" />
          </mxGeometry>
        </mxCell>
        <mxCell id="v-Di3Hc3oVgs2gPmcvR6-148" value="" style="endArrow=none;html=1;rounded=0;entryX=1;entryY=0.5;entryDx=0;entryDy=0;exitX=0;exitY=0.5;exitDx=0;exitDy=0;" edge="1" parent="1" source="v-Di3Hc3oVgs2gPmcvR6-149" target="v-Di3Hc3oVgs2gPmcvR6-142">
          <mxGeometry width="50" height="50" relative="1" as="geometry">
            <mxPoint x="1300" y="590" as="sourcePoint" />
            <mxPoint x="1240" y="420" as="targetPoint" />
          </mxGeometry>
        </mxCell>
        <mxCell id="v-Di3Hc3oVgs2gPmcvR6-149" value="Fase" style="ellipse;whiteSpace=wrap;html=1;align=center;fillColor=#fff2cc;strokeColor=#d6b656;" vertex="1" parent="1">
          <mxGeometry x="1350" y="550" width="100" height="40" as="geometry" />
        </mxCell>
      </root>
    </mxGraphModel>
  </diagram>
</mxfile>
